<?xml version="1.0" encoding="utf-8"?>
<svg version="1.1" id="图层_1" xmlns="http://www.w3.org/2000/svg" xmlns:xlink="http://www.w3.org/1999/xlink" x="0px" y="0px"
	 viewBox="0 0 44 44" style="enable-background:new 0 0 44 44;" xml:space="preserve">
<style type="text/css">
	.st0{fill:#DA282A;}
	.st1{fill:#FFFFFF;}
</style>
<g>
	<path class="st0" d="M22,44c12.2,0,22-9.8,22-22C44,9.8,34.2,0,22,0C9.8,0,0,9.8,0,22C0,34.2,9.8,44,22,44z"/>
	<path class="st1" d="M32,11.3l-21.2,3.6c-0.2,0-0.4,0.1-0.6,0.3c-0.1,0.2-0.2,0.4-0.3,0.6l-0.2,1.8c0,0.2,0,0.3,0,0.4
		c0.1,0.1,0.1,0.3,0.2,0.4c0.1,0.1,0.2,0.2,0.4,0.2c0.1,0,0.3,0.1,0.4,0l4.1-0.7v14.7c0,0.2,0,0.4,0.1,0.5c0.1,0.2,0.2,0.3,0.4,0.4
		c0.2,0.1,0.3,0.1,0.5,0.1c0.2,0,0.4-0.1,0.5-0.2l1.6-1c0.2-0.1,0.3-0.3,0.4-0.5c0.1-0.2,0.2-0.4,0.2-0.6v-14l5.7-0.9v10.3
		c0,0.6,0.2,1.3,0.5,1.8l2.5,4.7c0.1,0.1,0.2,0.3,0.3,0.3c0.1,0.1,0.3,0.1,0.4,0.1h2.2c0.1,0,0.3,0,0.4-0.1c0.1-0.1,0.2-0.2,0.3-0.3
		c0.1-0.1,0.1-0.3,0.1-0.4c0-0.1,0-0.3-0.1-0.4l-2.5-4.9C28.2,27,28,26.4,28,25.7V15.7l4-0.7c0.2,0,0.4-0.1,0.5-0.3
		c0.1-0.2,0.2-0.4,0.3-0.6l0.2-1.8c0-0.2,0-0.3,0-0.5s-0.1-0.3-0.2-0.4s-0.2-0.2-0.4-0.2C32.3,11.3,32.1,11.2,32,11.3z"/>
</g>
</svg>
